<svg id="strava_outlined" xmlns="http://www.w3.org/2000/svg" viewBox="0 0 95.3 41.4"><defs><style>.cls-1{fill:#999}</style></defs><path class="cls-1" d="M14.6 34.1a14.2 14.2 0 0 1-4.3-.6 9.5 9.5 0 0 1-3.4-2l2.7-3.1a8 8 0 0 0 2.6 1.3 9.3 9.3 0 0 0 2.7.4 2.1 2.1 0 0 0 1-.1.5.5 0 0 0 .3-.5.6.6 0 0 0-.5-.6 7.7 7.7 0 0 0-1.6-.4l-2.5-.6a8.3 8.3 0 0 1-2-.9 4.3 4.3 0 0 1-1.4-1.4 3.7 3.7 0 0 1-.5-2 4.8 4.8 0 0 1 .4-2A4.6 4.6 0 0 1 9.3 20a5.8 5.8 0 0 1 2-1.1 8.9 8.9 0 0 1 2.8-.4 12.9 12.9 0 0 1 3.9.5 9.2 9.2 0 0 1 3 1.6L18.5 24a7.6 7.6 0 0 0-2.2-1.2 8 8 0 0 0-2.3-.3 1.6 1.6 0 0 0-.8.1.5.5 0 0 0-.3.5.6.6 0 0 0 .4.5 7 7 0 0 0 1.6.5 22.4 22.4 0 0 1 2.6.6 7.8 7.8 0 0 1 2 1 4.2 4.2 0 0 1 1.3 1.3 3.8 3.8 0 0 1 .5 2 4.7 4.7 0 0 1-.5 2.1 4.6 4.6 0 0 1-1.3 1.6 6.3 6.3 0 0 1-2.1 1 9.9 9.9 0 0 1-2.8.4z"/><path class="cls-1" d="M25.5 23H21v-4.3h14V23h-4.5v10.8h-5V23zM35.7 18.7H43a10.1 10.1 0 0 1 3.3.5 5.5 5.5 0 0 1 2.1 1.3 4.6 4.6 0 0 1 1 1.5 5.5 5.5 0 0 1 .4 2 4.8 4.8 0 0 1-.8 2.8 5.5 5.5 0 0 1-2.2 1.8l3.5 5.2h-5.7l-2.8-4.4h-1v4.4h-5.1v-15zm7.2 7.2a2.3 2.3 0 0 0 1.4-.4 1.3 1.3 0 0 0 .5-1 1.2 1.2 0 0 0-.5-1.1A2.4 2.4 0 0 0 43 23h-2.2v3H43zM79.6 27.3l3.3 6.5h4.8l-8-16-8.2 16h4.8l3.3-6.5z"/><path class="cls-1" d="M57 27.3l3.3 6.5H65l-8.1-16-8.1 16h4.8l3.3-6.5zM68.3 25.2L65 18.7h-4.8l8.1 16 8.1-16h-4.8l-3.3 6.5zM7.5 13.2V7.6h2.3a2 2 0 0 1 1.4.4 1.6 1.6 0 0 1 .5 1.3 1.6 1.6 0 0 1-.5 1.3 2 2 0 0 1-1.4.5H8.5v2h-1zm1-3h1.3a1 1 0 0 0 .7-.2.8.8 0 0 0 .2-.6.8.8 0 0 0-.2-.7 1.1 1.1 0 0 0-.7-.2H8.5v1.7zM16 13.1a2.5 2.5 0 0 1-1.8 0 2.2 2.2 0 0 1-1.3-1.4 4.3 4.3 0 0 1-.2-1.4 3 3 0 0 1 .7-2.1 2.3 2.3 0 0 1 1.7-.8 2.2 2.2 0 0 1 1.7.8 3 3 0 0 1 .7 2.1 4.2 4.2 0 0 1-.2 1.4 2.3 2.3 0 0 1-.5 1 2.3 2.3 0 0 1-.8.4zM14 12a1.3 1.3 0 0 0 2.1 0 2.6 2.6 0 0 0 .4-1.6 2.3 2.3 0 0 0-.4-1.5 1.3 1.3 0 0 0-2 0 2.3 2.3 0 0 0-.4 1.5 2.6 2.6 0 0 0 .4 1.6zM19.7 13.2l-1-5.6h1l.7 3.9 1.3-4h.5l1.4 4 .7-4h1l-1.1 5.7h-1L22 9.3l-1.3 3.8h-1zM26.8 13.2V7.6h3.5v.8h-2.5V10H30v.8h-2.3v1.6h2.5v.8h-3.5zM32 13.2V7.6h2.3a2 2 0 0 1 1.4.4 1.6 1.6 0 0 1 .5 1.3 1.6 1.6 0 0 1-.3 1 1.7 1.7 0 0 1-1 .6l1.3 2.2h-1L34 11h-1v2.1h-1zm1-3h1.2a.8.8 0 0 0 1-1 .8.8 0 0 0-1-.8H33V10zM37.8 13.2V7.6h3.5v.8h-2.6V10H41v.8h-2.3v1.6h2.6v.8h-3.5zM43 13.2V7.6h1.8a2.4 2.4 0 0 1 1 .1 2.4 2.4 0 0 1 .7.5 2.3 2.3 0 0 1 .6.9 3.6 3.6 0 0 1 .1 1.3 3.9 3.9 0 0 1-.2 1.3 2 2 0 0 1-.5.9 2.4 2.4 0 0 1-.8.4 2.8 2.8 0 0 1-1 .2H43zm1-1h.8a1.4 1.4 0 0 0 1-.3 2.3 2.3 0 0 0 .5-1.6 2.3 2.3 0 0 0-.4-1.4 1.3 1.3 0 0 0-1-.5H44v3.9zM51.5 13.2V7.6h2.3A1.6 1.6 0 0 1 55 8a1.4 1.4 0 0 1 .4 1 1.2 1.2 0 0 1-.6 1 1.6 1.6 0 0 1 .6.6 1.3 1.3 0 0 1 .2.8q0 1.7-2 1.7h-2.1zm1-3.3h1.2a1 1 0 0 0 .6-.2.6.6 0 0 0 .2-.5.7.7 0 0 0-.2-.6 1 1 0 0 0-.6-.2h-1.3v1.4zm0 2.4h1.3a1.7 1.7 0 0 0 .4 0 .7.7 0 0 0 .2-.2.7.7 0 0 0 .2-.3 1 1 0 0 0 0-.4.7.7 0 0 0-.2-.6 2.2 2.2 0 0 0-1-.2h-1v1.7zM58.2 13.2v-2.4l-1.8-3.3h1l1.3 2.4L60 7.5h1l-1.8 3.3V13h-1z"/></svg>