<svg xmlns="http://www.w3.org/2000/svg" viewBox="0 0 280 60"><defs><style>.a{fill:#fff;}.b{fill:#e51a51;}</style></defs><title>logo</title><path class="a" d="M64.8,41.3c-.3,0-.5-.1-.5-.3v-.3l2.8-15.9H65.4c-.3,0-.5,0-.5-.1s-.1-.2-.1-.5l.4-2a.7.7,0,0,1,.8-.6h5.5c.1.1.1.2,0,.5L71,25.4c1.6-2.8,3.9-4.3,6.6-4.3s2.6.3,2.6.8v.3l-.9,5.2a.7.7,0,0,1-.8.6H76.3c-.3,0-.5,0-.5-.1s-.1-.2,0-.5l.3-2.1h-.8q-3.9,0-4.8,5.4L68.7,40.7c0,.2,0,.4-.2.4a.6.6,0,0,1-.5.2Z"/><path class="a" d="M95.8,29.1q0-4.5-3.9-4.5a4.9,4.9,0,0,0-3,.9A5,5,0,0,0,87,27.9a16.3,16.3,0,0,0-1.1,5.9c0,3.1,1.2,4.6,3.6,4.6a5.4,5.4,0,0,0,3.1-.9A6.7,6.7,0,0,0,94.5,35a14,14,0,0,0,1.3-5.9m4.7-.1a13.9,13.9,0,0,1-3.1,9.3c-2.1,2.3-4.9,3.4-8.6,3.4a7.2,7.2,0,0,1-5.5-2,8.1,8.1,0,0,1-2-5.9,13.7,13.7,0,0,1,3-9.1c1.9-2.4,4.7-3.6,8.3-3.6s6.2,1.5,7.3,4.5a9,9,0,0,1,.6,3.4"/><path class="a" d="M118,26.6a4.8,4.8,0,0,0-4.1-2.1,5.4,5.4,0,0,0-3.1.9,5.2,5.2,0,0,0-2,2.4,12.3,12.3,0,0,0-1.3,5.5q0,2.9.9,3.9a3.2,3.2,0,0,0,2.8,1.1,6.1,6.1,0,0,0,3.5-1.1,4.5,4.5,0,0,0,1.9-3.2Zm1.9-5h3.3c.1.1.1.2,0,.5l-2.7,15.2v.4c0,.5.2.7.8.7l1-.3c.5-.1.8-.1.9.3l.4.6a.9.9,0,0,1,.1.5.5.5,0,0,1-.3.4,7.2,7.2,0,0,1-4.4,1.7c-2,0-3.1-.9-3.1-2.9v-.3a7.1,7.1,0,0,1-6.3,3.2,6.6,6.6,0,0,1-4.9-1.8,7.9,7.9,0,0,1-1.7-5.5,17,17,0,0,1,2.4-8.9,9.2,9.2,0,0,1,3.3-3.2,9.5,9.5,0,0,1,4.8-1.2,6.4,6.4,0,0,1,5.4,2.5l.2-1.4c.1-.3.1-.4.2-.5h.6"/><path class="a" d="M141.3,26.6a4.7,4.7,0,0,0-4.1-2.1,5.4,5.4,0,0,0-3.1.9,6.3,6.3,0,0,0-2,2.3,13.8,13.8,0,0,0-1.3,5.5,6.7,6.7,0,0,0,.9,4,3.7,3.7,0,0,0,2.9,1.1,6.3,6.3,0,0,0,3.5-1.1,4.8,4.8,0,0,0,1.9-3.1Zm6.5-15q.6,0,.6.3a.4.4,0,0,1-.1.3l-4.5,25.2v.4c0,.5.3.7.8.7l1-.3c.4-.1.7-.1.9.3l.4.6a.6.6,0,0,1-.2.9,7.2,7.2,0,0,1-4.2,1.7c-1.3,0-2.2-.2-2.6-.8a3.3,3.3,0,0,1-.7-2.4,7.1,7.1,0,0,1-6.3,3.2,6.2,6.2,0,0,1-4.8-1.8,8.1,8.1,0,0,1-1.8-5.7,17.3,17.3,0,0,1,1.6-7.2,9.3,9.3,0,0,1,5-5.1,9.6,9.6,0,0,1,3.8-.8,8.2,8.2,0,0,1,3.4.7,5.2,5.2,0,0,1,1.9,1.6l1.4-8.6h-2.2c0-.1-.1-.3,0-.5l.4-2c0-.3,0-.4.2-.5h6Z"/><path class="a" d="M165.1,26.1a3.6,3.6,0,0,0-2.8-1.3,6.3,6.3,0,0,0-3.5,1.1,5.3,5.3,0,0,0-1.9,3.1l-1.2,7.3.6.6a4.9,4.9,0,0,0,1.5.9,4.6,4.6,0,0,0,2.3.6c4,0,5.9-3,5.9-8.8a5.8,5.8,0,0,0-.9-3.5M154.8,39.4l-3.7,2a.4.4,0,0,1-.5,0c-.2-.1-.2-.2-.2-.3v-.2l4.5-26.1h-2.2v-.5l.4-2c0-.4.3-.6.7-.6h6c.1.1.1.2,0,.5l-2.1,12.2a8,8,0,0,1,6.6-3.3,5.9,5.9,0,0,1,4.7,2c1.2,1.3,1.7,3.1,1.7,5.5a16.1,16.1,0,0,1-2.5,9.3,8.6,8.6,0,0,1-7.6,3.8,8,8,0,0,1-5.8-2.3"/><path class="a" d="M182.6,15.2a2.6,2.6,0,0,1-.9,2.1,3.1,3.1,0,0,1-2.2.9,2.6,2.6,0,0,1-2-.8,2.5,2.5,0,0,1-.7-1.9,2.6,2.6,0,0,1,.9-2.1,3.1,3.1,0,0,1,2.2-.9,2.4,2.4,0,0,1,1.9.7,2.8,2.8,0,0,1,.8,2m-7,6.4h6c.1.1.1.2,0,.5l-2.7,15.1v.5c0,.5.2.8.6.8a3,3,0,0,0,1.2-.3.6.6,0,0,1,.9.2l.3.7c.2.3.1.6-.2.9a7.2,7.2,0,0,1-4.4,1.7c-2,0-3-.9-3-2.8a3.8,3.8,0,0,1,.1-1l2.2-13.2h-2.2a.8.8,0,0,1,0-.5l.4-2a.7.7,0,0,1,.8-.6"/><path class="a" d="M186.2,41.3q-.6,0-.6-.3a.4.4,0,0,1,.1-.3l4.5-25.9h-1.7c-.3,0-.5,0-.5-.1s-.1-.2-.1-.5l.4-2a.6.6,0,0,1,.2-.5h6.6a.8.8,0,0,1,0,.5l-2.7,15.9h1c3,0,5.1-2,6.3-5.9a.8.8,0,0,1,.8-.6H204v.5a9.8,9.8,0,0,1-2.5,4.3,7.8,7.8,0,0,1-4.2,2.2,4,4,0,0,1,2.6,1.3,7.5,7.5,0,0,1,1.1,3.5l.5,3.9c.1,1,.5,1.5,1,1.5a2,2,0,0,0,1.1-.3l.7-.2.4.4.2.6a.9.9,0,0,1,.1.5.5.5,0,0,1-.3.4,6.7,6.7,0,0,1-3.9,1.4c-1.3,0-2.1-.2-2.6-.8a4.8,4.8,0,0,1-1-2.5l-.6-4.3a4.6,4.6,0,0,0-.9-2.4,3.6,3.6,0,0,0-2.5-.6h-1.4l-1.7,9.6a.7.7,0,0,1-.8.6Z"/><path class="a" d="M217,24.5a4.4,4.4,0,0,0-3.4,1.6,7.6,7.6,0,0,0-1.7,4.1h1.5a9.7,9.7,0,0,0,4.3-.9,2.9,2.9,0,0,0,1.8-2.8,1.7,1.7,0,0,0-.7-1.5,2.8,2.8,0,0,0-1.8-.6m5.1,14.9a11.8,11.8,0,0,1-7.3,2.3c-2.7,0-4.7-.7-6-2a8.3,8.3,0,0,1-1.9-5.8,14.4,14.4,0,0,1,2.7-8.6,8.3,8.3,0,0,1,3.4-3,10.7,10.7,0,0,1,5.1-1.2,6.2,6.2,0,0,1,4.4,1.5,4.6,4.6,0,0,1,1.6,3.8,5.5,5.5,0,0,1-3,5.2,13.7,13.7,0,0,1-7,1.7l-2.6-.2V34a4.8,4.8,0,0,0,1.1,3.2,4.5,4.5,0,0,0,3.5,1.2,8,8,0,0,0,4.6-1.4c.4-.1.7-.1.9.3l.7,1.2a.6.6,0,0,1-.2.9"/><path class="a" d="M235.4,11.6c.3,0,.5.1.5.3v.3l-4.5,25.1a.9.9,0,0,0-.1.5.7.7,0,0,0,.7.8,3,3,0,0,0,1.2-.3.6.6,0,0,1,.9.2l.3.7c.2.3.1.6-.2.9a7.1,7.1,0,0,1-4.3,1.7c-2.1,0-3.1-.9-3.1-2.8a3.8,3.8,0,0,1,.1-1l4-23.2h-2.2c0-.1-.1-.3,0-.5l.4-2a.6.6,0,0,1,.2-.5h6.1Z"/><path class="a" d="M246.7,15.2a2.6,2.6,0,0,1-.9,2.1,2.9,2.9,0,0,1-2.2.9,2.8,2.8,0,0,1-2-.8,2.9,2.9,0,0,1-.7-1.9,2.4,2.4,0,0,1,1-2.1,2.9,2.9,0,0,1,2.1-.9,2.6,2.6,0,0,1,2,.7,2.7,2.7,0,0,1,.7,2m-7,6.4h6c.1.1.1.2,0,.5L243,37.3v.5c0,.5.2.8.7.8l1.1-.3a.6.6,0,0,1,.9.2l.3.7c.2.3.1.6-.2.9a7.1,7.1,0,0,1-4.3,1.7c-2.1,0-3.1-.9-3.1-2.8a3.8,3.8,0,0,1,.1-1l2.3-13.2h-1.7c-.3,0-.5,0-.5-.1s-.1-.2-.1-.5l.4-2a.7.7,0,0,1,.8-.6"/><path class="a" d="M243.8,47a5.4,5.4,0,0,0,2.7.6,2.3,2.3,0,0,0,2.1-.9,11.7,11.7,0,0,0,1-3.4l3.3-18.5h-2.4c-.3,0-.5,0-.5-.1s-.1-.2,0-.5l.3-2a.6.6,0,0,1,.2-.5h3l.6-3.9a12.6,12.6,0,0,1,.7-2.5,7.5,7.5,0,0,1,1-2c1-1.4,2.8-2.1,5.5-2.1a9.3,9.3,0,0,1,4.2.9c.3.1.4.2.4.4s0,.3-.1.4l-.7,1.8c-.2.4-.4.5-.8.4a6,6,0,0,0-2.7-.6,2.3,2.3,0,0,0-2.1.9,8.3,8.3,0,0,0-1.1,3.4l-.5,2.9h5.3c.1.1.1.2,0,.5l-.3,2c-.1.3-.1.4-.2.5h-5.3l-3.5,19.3a13.7,13.7,0,0,1-.5,2.5,13.6,13.6,0,0,1-1.1,2c-1,1.5-2.8,2.2-5.5,2.2a9.3,9.3,0,0,1-4.2-.9c-.3-.2-.4-.3-.4-.5V49l.7-1.7a.6.6,0,0,1,.9-.3"/><path class="a" d="M272.9,24.5a4.6,4.6,0,0,0-3.4,1.6,9.6,9.6,0,0,0-1.7,4.1h1.5a9.9,9.9,0,0,0,4.4-.9,2.9,2.9,0,0,0,1.8-2.8,2,2,0,0,0-.7-1.5,2.9,2.9,0,0,0-1.9-.6m5.2,14.9a12,12,0,0,1-7.3,2.3c-2.8,0-4.8-.7-6-2a8.3,8.3,0,0,1-1.9-5.8,14.3,14.3,0,0,1,2.6-8.6,9.2,9.2,0,0,1,3.5-3,10.3,10.3,0,0,1,5-1.2,6.4,6.4,0,0,1,4.5,1.5,5,5,0,0,1,1.6,3.8,5.8,5.8,0,0,1-3,5.2,13.9,13.9,0,0,1-7,1.7l-2.6-.2V34a4.3,4.3,0,0,0,1.1,3.2,4.5,4.5,0,0,0,3.5,1.2,8.2,8.2,0,0,0,4.6-1.4c.4-.1.7-.1.9.3l.6,1.2c.2.4.2.7-.1.9"/><path class="b" d="M26.6.4,12.1,8.8C20.9,14.7,25.8,26,24.6,36.7c-.7,6.3-4.1,12.4-8.9,17.1l-5.5-3.2c4.2-3.7,7.5-8.6,8.2-13.7C19.8,27.3,15,16.4,6,12.3l-5.3,3V45.2L26.6,60.1,52.5,45.2V15.3ZM41,16.7c-.3,1.7-1.9,4.9-2,7.3s.6,6.1-2.7,9.4-3.4,9.5-2.7,11.9.8,3,1.1,3.9,0,1.2-.3,1.3-.7,0-1-.8-4.1-7-3.1-12.4,4.8-4.8,5.6-8.2-2.2-5.9-3.5-4.9A34.5,34.5,0,0,0,29,28.4a.3.3,0,0,1-.6-.2,30.3,30.3,0,0,0-4.2-11.8.6.6,0,0,1,.7-.8,7.1,7.1,0,0,0,1.9.8c2.1.3,7.4,1,8.9-2.1s3-2.1,4.2-1.4S41.3,14.9,41,16.7Z"/></svg>