<?xml version="1.0" encoding="utf-8"?>
<!-- Generator: Adobe Illustrator 23.0.2, SVG Export Plug-In . SVG Version: 6.00 Build 0)  -->
<svg version="1.1" id="Ebene_1" xmlns="http://www.w3.org/2000/svg" xmlns:xlink="http://www.w3.org/1999/xlink" x="0px" y="0px"
	 viewBox="0 0 53.6 60" style="enable-background:new 0 0 53.6 60;" xml:space="preserve">
<style type="text/css">
	.st0{fill:#FFFFFF;}
</style>
<path class="st0" d="M26.9,0.4L12.3,8.8c8.8,6,13.7,17.2,12.5,27.9C24.1,43,20.7,49.1,16,53.8l-5.5-3.2c4.2-3.7,7.5-8.6,8.2-13.7
	c1.4-9.6-3.4-20.5-12.4-24.6l-5.3,3v29.9l25.9,14.9l25.9-14.9V15.3L26.9,0.4z M41.2,16.7c-0.3,1.8-1.9,5-2,7.4
	c-0.1,2.4,0.7,6.1-2.7,9.3c-3.4,3.3-3.4,9.6-2.7,11.9c0.4,1.2,0.9,2.9,1.1,3.8c0.2,0.6-0.1,1.2-0.4,1.4c-0.3,0.2-0.6,0-0.9-0.8
	c0,0-4.1-7.1-3.2-12.4c1-5.3,4.8-4.8,5.6-8.2c1.1-4.8-2.3-6-3.5-5c-1,0.8-3.4,4.2-3.4,4.2c-0.2,0.3-0.6,0.1-0.6-0.2
	c-1-7.1-4.2-11.8-4.2-11.8c-0.3-0.5,0.2-1,0.7-0.8c0.7,0.4,1.4,0.7,1.8,0.7c2.2,0.3,7.4,1.1,8.9-2c1.4-2.9,3-2.2,4.2-1.4
	C41.3,13.7,41.5,14.9,41.2,16.7z"/>
</svg>
