<svg xmlns="http://www.w3.org/2000/svg" xmlns:xlink="http://www.w3.org/1999/xlink" viewBox="0 0 280 60"><defs><style>.a{fill:url(#a);}.b{fill:#0f1837;}.c{fill:#e51a51;}.d{fill:#fff;}</style><linearGradient id="a" x1="2.79" y1="7.41" x2="47.12" y2="51.74" gradientUnits="userSpaceOnUse"><stop offset="0" stop-color="#991159"/><stop offset="0.08" stop-color="#9f1258"/><stop offset="1" stop-color="#dc1952"/></linearGradient></defs><title>logo</title><polygon class="a" points="25.6 0.4 -0.3 15.3 -0.3 45.2 25.6 60.1 51.5 45.2 51.5 15.3 25.6 0.4"/><path class="b" d="M64.8,35.3c-.3,0-.5-.1-.5-.3v-.3l2.8-15.9H65.4c-.3,0-.5,0-.5-.1s-.1-.2-.1-.5l.4-2a.7.7,0,0,1,.8-.6h5.5c.1.1.1.2,0,.5L71,19.4c1.6-2.8,3.9-4.3,6.6-4.3s2.6.3,2.6.8v.3l-.9,5.2a.7.7,0,0,1-.8.6H76.3c-.3,0-.5,0-.5-.1s-.1-.2,0-.5l.3-2.1h-.8q-3.9,0-4.8,5.4L68.7,34.7c0,.2,0,.4-.2.4a.6.6,0,0,1-.5.2Z"/><path class="b" d="M95.8,23.1q0-4.5-3.9-4.5a4.9,4.9,0,0,0-3,.9A5,5,0,0,0,87,21.9a16.3,16.3,0,0,0-1.1,5.9c0,3.1,1.2,4.6,3.6,4.6a5.4,5.4,0,0,0,3.1-.9A6.7,6.7,0,0,0,94.5,29a14,14,0,0,0,1.3-5.9m4.7-.1a13.9,13.9,0,0,1-3.1,9.3c-2.1,2.3-4.9,3.4-8.6,3.4a7.2,7.2,0,0,1-5.5-2,8.1,8.1,0,0,1-2-5.9,13.7,13.7,0,0,1,3-9.1c1.9-2.4,4.7-3.6,8.3-3.6s6.2,1.5,7.3,4.5a9,9,0,0,1,.6,3.4"/><path class="b" d="M118,20.6a4.8,4.8,0,0,0-4.1-2.1,5.4,5.4,0,0,0-3.1.9,5.2,5.2,0,0,0-2,2.4,12.3,12.3,0,0,0-1.3,5.5q0,2.8.9,3.9a3.2,3.2,0,0,0,2.8,1.1,6.1,6.1,0,0,0,3.5-1.1,4.5,4.5,0,0,0,1.9-3.2Zm1.9-5h3.3c.1.1.1.2,0,.5l-2.7,15.2v.4c0,.5.2.7.8.7l1-.3c.5-.1.8-.1.9.3l.4.6a.9.9,0,0,1,.1.5.5.5,0,0,1-.3.4,7.2,7.2,0,0,1-4.4,1.7c-2,0-3.1-.9-3.1-2.9v-.3a7.1,7.1,0,0,1-6.3,3.2,6.6,6.6,0,0,1-4.9-1.8,7.9,7.9,0,0,1-1.7-5.5,17,17,0,0,1,2.4-8.9,9.2,9.2,0,0,1,3.3-3.2,9.5,9.5,0,0,1,4.8-1.2,6.4,6.4,0,0,1,5.4,2.5l.2-1.4c.1-.3.1-.4.2-.5h.6"/><path class="b" d="M141.3,20.6a4.7,4.7,0,0,0-4.1-2.1,5.4,5.4,0,0,0-3.1.9,6.3,6.3,0,0,0-2,2.3,13.8,13.8,0,0,0-1.3,5.5,6.7,6.7,0,0,0,.9,4,3.7,3.7,0,0,0,2.9,1.1,6.3,6.3,0,0,0,3.5-1.1,4.8,4.8,0,0,0,1.9-3.1Zm6.5-15q.6,0,.6.3a.4.4,0,0,1-.1.3l-4.5,25.2v.4c0,.5.3.7.8.7l1-.3c.4-.1.7-.1.9.3l.4.6a.6.6,0,0,1-.2.9,7.2,7.2,0,0,1-4.2,1.7c-1.3,0-2.2-.2-2.6-.8a3.3,3.3,0,0,1-.7-2.4,7.1,7.1,0,0,1-6.3,3.2,6.2,6.2,0,0,1-4.8-1.8,8.1,8.1,0,0,1-1.8-5.7,17.3,17.3,0,0,1,1.6-7.2,9.3,9.3,0,0,1,5-5.1,9.6,9.6,0,0,1,3.8-.8,8.2,8.2,0,0,1,3.4.7,5.2,5.2,0,0,1,1.9,1.6l1.4-8.6h-2.2c0-.1-.1-.3,0-.5l.4-2c0-.3,0-.4.2-.5h6Z"/><path class="b" d="M165.1,20.1a3.6,3.6,0,0,0-2.8-1.3,6.3,6.3,0,0,0-3.5,1.1,5.3,5.3,0,0,0-1.9,3.1l-1.2,7.3.6.6a4.9,4.9,0,0,0,1.5.9,4.6,4.6,0,0,0,2.3.6c4,0,5.9-3,5.9-8.8a5.8,5.8,0,0,0-.9-3.5M154.8,33.4l-3.7,2a.4.4,0,0,1-.5,0c-.2-.1-.2-.2-.2-.3v-.2l4.5-26.1h-2.2V8.2l.4-2c0-.4.3-.6.7-.6h6c.1.1.1.2,0,.5l-2.1,12.2a8,8,0,0,1,6.6-3.3,5.9,5.9,0,0,1,4.7,2c1.2,1.3,1.7,3.1,1.7,5.5a16.1,16.1,0,0,1-2.5,9.3,8.6,8.6,0,0,1-7.6,3.8,8,8,0,0,1-5.8-2.3"/><path class="b" d="M182.6,9.2a2.6,2.6,0,0,1-.9,2.1,3.1,3.1,0,0,1-2.2.9,2.6,2.6,0,0,1-2-.8,2.5,2.5,0,0,1-.7-1.9,2.6,2.6,0,0,1,.9-2.1,3.1,3.1,0,0,1,2.2-.9,2.4,2.4,0,0,1,1.9.7,2.8,2.8,0,0,1,.8,2m-7,6.4h6c.1.1.1.2,0,.5l-2.7,15.1v.5c0,.5.2.8.6.8a3,3,0,0,0,1.2-.3.6.6,0,0,1,.9.2l.3.7c.2.3.1.6-.2.9a7.2,7.2,0,0,1-4.4,1.7c-2,0-3-.9-3-2.8a3.8,3.8,0,0,1,.1-1l2.2-13.2h-2.2a.8.8,0,0,1,0-.5l.4-2a.7.7,0,0,1,.8-.6"/><path class="b" d="M186.2,35.3q-.6,0-.6-.3a.4.4,0,0,1,.1-.3l4.5-25.9h-1.7c-.3,0-.5,0-.5-.1s-.1-.2-.1-.5l.4-2a.6.6,0,0,1,.2-.5h6.6a.8.8,0,0,1,0,.5l-2.7,15.9h1c3,0,5.1-2,6.3-5.9a.8.8,0,0,1,.8-.6H204v.5a9.8,9.8,0,0,1-2.5,4.3,7.8,7.8,0,0,1-4.2,2.2,4,4,0,0,1,2.6,1.3,7.5,7.5,0,0,1,1.1,3.5l.5,3.9c.1,1,.5,1.5,1,1.5a2,2,0,0,0,1.1-.3l.7-.2.4.4.2.6a.9.9,0,0,1,.1.5.5.5,0,0,1-.3.4,6.7,6.7,0,0,1-3.9,1.4c-1.3,0-2.1-.2-2.6-.8a4.8,4.8,0,0,1-1-2.5l-.6-4.3a4.6,4.6,0,0,0-.9-2.4,3.6,3.6,0,0,0-2.5-.6h-1.4l-1.7,9.6a.7.7,0,0,1-.8.6Z"/><path class="b" d="M217,18.5a4.4,4.4,0,0,0-3.4,1.6,7.6,7.6,0,0,0-1.7,4.1h1.5a9.7,9.7,0,0,0,4.3-.9,2.9,2.9,0,0,0,1.8-2.8,1.7,1.7,0,0,0-.7-1.5,2.8,2.8,0,0,0-1.8-.6m5.1,14.9a11.8,11.8,0,0,1-7.3,2.3c-2.7,0-4.7-.7-6-2a8.3,8.3,0,0,1-1.9-5.8,14.4,14.4,0,0,1,2.7-8.6,8.3,8.3,0,0,1,3.4-3,10.7,10.7,0,0,1,5.1-1.2,6.2,6.2,0,0,1,4.4,1.5,4.6,4.6,0,0,1,1.6,3.8,5.5,5.5,0,0,1-3,5.2,13.7,13.7,0,0,1-7,1.7l-2.6-.2V28a4.8,4.8,0,0,0,1.1,3.2,4.5,4.5,0,0,0,3.5,1.2,8,8,0,0,0,4.6-1.4c.4-.1.7-.1.9.3l.7,1.2a.6.6,0,0,1-.2.9"/><path class="c" d="M235.4,5.6c.3,0,.5.1.5.3v.3l-4.5,25.1a.9.9,0,0,0-.1.5.7.7,0,0,0,.7.8,3,3,0,0,0,1.2-.3.6.6,0,0,1,.9.2l.3.7c.2.3.1.6-.2.9a7.1,7.1,0,0,1-4.3,1.7c-2.1,0-3.1-.9-3.1-2.8a3.8,3.8,0,0,1,.1-1l4-23.2h-2.2c0-.1-.1-.3,0-.5l.4-2a.6.6,0,0,1,.2-.5h6.1Z"/><path class="c" d="M246.7,9.2a2.6,2.6,0,0,1-.9,2.1,2.9,2.9,0,0,1-2.2.9,2.8,2.8,0,0,1-2-.8,2.9,2.9,0,0,1-.7-1.9,2.4,2.4,0,0,1,1-2.1,2.9,2.9,0,0,1,2.1-.9,2.6,2.6,0,0,1,2,.7,2.7,2.7,0,0,1,.7,2m-7,6.4h6c.1.1.1.2,0,.5L243,31.3v.5c0,.5.2.8.7.8l1.1-.3a.6.6,0,0,1,.9.2l.3.7c.2.3.1.6-.2.9a7.1,7.1,0,0,1-4.3,1.7c-2.1,0-3.1-.9-3.1-2.8a3.8,3.8,0,0,1,.1-1l2.3-13.2h-1.7c-.3,0-.5,0-.5-.1s-.1-.2-.1-.5l.4-2a.7.7,0,0,1,.8-.6"/><path class="c" d="M243.8,41a5.4,5.4,0,0,0,2.7.6,2.3,2.3,0,0,0,2.1-.9,11.7,11.7,0,0,0,1-3.4l3.3-18.5h-2.4c-.3,0-.5,0-.5-.1s-.1-.2,0-.5l.3-2a.6.6,0,0,1,.2-.5h3l.6-3.9a12.6,12.6,0,0,1,.7-2.5,7.5,7.5,0,0,1,1-2c1-1.4,2.8-2.1,5.5-2.1a9.3,9.3,0,0,1,4.2.9c.3.1.4.2.4.4s0,.3-.1.4l-.7,1.8c-.2.4-.4.5-.8.4a6,6,0,0,0-2.7-.6,2.3,2.3,0,0,0-2.1.9,8.3,8.3,0,0,0-1.1,3.4l-.5,2.9h5.3c.1.1.1.2,0,.5l-.3,2c-.1.3-.1.4-.2.5h-5.3l-3.5,19.3a13.7,13.7,0,0,1-.5,2.5,13.6,13.6,0,0,1-1.1,2c-1,1.5-2.8,2.2-5.5,2.2a9.3,9.3,0,0,1-4.2-.9c-.3-.2-.4-.3-.4-.5V43l.7-1.7a.6.6,0,0,1,.9-.3"/><path class="c" d="M272.9,18.5a4.6,4.6,0,0,0-3.4,1.6,9.6,9.6,0,0,0-1.7,4.1h1.5a9.9,9.9,0,0,0,4.4-.9,2.9,2.9,0,0,0,1.8-2.8,2,2,0,0,0-.7-1.5,2.9,2.9,0,0,0-1.9-.6m5.2,14.9a12,12,0,0,1-7.3,2.3c-2.8,0-4.8-.7-6-2a8.3,8.3,0,0,1-1.9-5.8,14.3,14.3,0,0,1,2.6-8.6,9.2,9.2,0,0,1,3.5-3,10.3,10.3,0,0,1,5-1.2,6.4,6.4,0,0,1,4.5,1.5,5,5,0,0,1,1.6,3.8,5.8,5.8,0,0,1-3,5.2,13.9,13.9,0,0,1-7,1.7l-2.6-.2V28a4.3,4.3,0,0,0,1.1,3.2,4.5,4.5,0,0,0,3.5,1.2,8.2,8.2,0,0,0,4.6-1.4c.4-.1.7-.1.9.3l.6,1.2c.2.4.2.7-.1.9"/><path class="d" d="M27.4,28.2a.3.3,0,0,0,.6.2,34.5,34.5,0,0,1,3.4-4.2c1.3-1,4.6.1,3.5,4.9s-4.7,2.9-5.6,8.2,3.1,12.4,3.1,12.4.7,1,1,.8.5-.7.3-1.3-.7-2.7-1.1-3.9-.8-8.6,2.7-11.9,2.6-7,2.7-9.4,1.7-5.6,2-7.3.1-3-1.1-3.8-2.9-1.4-4.2,1.4-6.8,2.4-8.9,2.1a7.1,7.1,0,0,1-1.9-.8.6.6,0,0,0-.7.8,30.3,30.3,0,0,1,4.2,11.8"/><path class="d" d="M10.7,8.5,4.6,12.1C13.8,16,18.8,27.2,17.4,36.9c-.7,5.1-4,10-8.2,13.7l5.5,3.2c4.8-4.7,8.2-10.8,8.9-17.1,1.2-10.8-3.8-22.3-12.9-28.2"/><path class="b" d="M72,51.3H69.6L68.2,49l-.3-.5-.3-.4-.3-.2h-.9v3.5H64.3V42.1h3.3c2.2,0,3.3.9,3.3,2.5a2.8,2.8,0,0,1-.1.9c-.1.3-.3.5-.4.8a1.8,1.8,0,0,1-.7.5,2,2,0,0,1-.8.4h0l.4.2.3.4c.1.1.3.2.4.4l.3.4Zm-5.6-7.6v2.5h.9a1.5,1.5,0,0,0,1-.3,1.3,1.3,0,0,0,.4-1c0-.8-.4-1.2-1.4-1.2Z"/><path class="b" d="M79.2,51.3H73.7V42.1H79v1.7H75.7v2.1h3.1v1.6H75.7v2.2h3.5Z"/><path class="b" d="M89.8,51.3H87.7l-3.8-5.8a2.3,2.3,0,0,1-.5-.7h0v6.5H81.5V42.1h2.2l3.7,5.6c.1.3.3.5.4.8h0V42.1h2Z"/><path class="b" d="M101,51.3H98.9l-3.8-5.8a2.3,2.3,0,0,1-.5-.7h0v6.5H92.7V42.1h2.2l3.7,5.6c.1.3.3.5.4.8h0V42.1h2Z"/><path class="b" d="M111.6,51.3h-2.4L107.8,49l-.3-.5-.3-.4a.5.5,0,0,0-.4-.2h-.9v3.5h-2V42.1h3.2c2.3,0,3.4.9,3.4,2.5a2.8,2.8,0,0,1-.1.9,3.5,3.5,0,0,1-.5.8,1.5,1.5,0,0,1-.6.5l-.9.4h0l.4.2.4.4.3.4a.5.5,0,0,1,.3.4Zm-5.7-7.6v2.5h.9a1.8,1.8,0,0,0,1.1-.3,1.3,1.3,0,0,0,.4-1c0-.8-.5-1.2-1.4-1.2Z"/><path class="b" d="M121.3,51.3h-2.2l-.7-2h-3.2l-.7,2h-2.2l3.3-9.2h2.5ZM118,47.7l-1-3.1a1.9,1.9,0,0,1-.2-.8h0c-.1.2-.1.5-.2.8l-1,3.1Z"/><path class="b" d="M123.3,51.3V42.1h3.3c3.2,0,4.9,1.5,4.9,4.5a4.8,4.8,0,0,1-1.4,3.5,5.1,5.1,0,0,1-3.5,1.2Zm2.1-7.5v5.9h1a2.6,2.6,0,0,0,2.1-.9,2.9,2.9,0,0,0,.8-2.2,2.8,2.8,0,0,0-.8-2,2.9,2.9,0,0,0-2.1-.8Z"/><path class="b" d="M138.2,51.3V42.1h3.4a3.7,3.7,0,0,1,2.3.6,1.8,1.8,0,0,1,.9,1.6,2.1,2.1,0,0,1-.5,1.3,3.5,3.5,0,0,1-1.3.8h0a2.9,2.9,0,0,1,1.6.7,2.5,2.5,0,0,1,.5,1.5,2.5,2.5,0,0,1-.9,2,3.6,3.6,0,0,1-2.4.7Zm2.1-7.7v2.2h.9a1.5,1.5,0,0,0,1-.3.9.9,0,0,0,.4-.8c0-.7-.5-1.1-1.5-1.1Zm0,3.8v2.4h1.1a1.6,1.6,0,0,0,1.1-.3,1.2,1.2,0,0,0,.5-.9,1.3,1.3,0,0,0-.4-.9,2.1,2.1,0,0,0-1.2-.3Z"/><path class="b" d="M152.9,51.3h-5.5V42.1h2.1v7.6h3.4Z"/><path class="b" d="M158.5,51.5a4.1,4.1,0,0,1-3.2-1.3,4.6,4.6,0,0,1-1.2-3.3,5.2,5.2,0,0,1,1.2-3.6,4.5,4.5,0,0,1,3.4-1.3,4.1,4.1,0,0,1,3.2,1.3,4.7,4.7,0,0,1,1.2,3.4,4.8,4.8,0,0,1-1.3,3.5A4.2,4.2,0,0,1,158.5,51.5Zm.1-7.7a1.9,1.9,0,0,0-1.7.8,3.3,3.3,0,0,0-.7,2.1,3.4,3.4,0,0,0,.7,2.2,2.2,2.2,0,0,0,3.4,0,3.3,3.3,0,0,0,.6-2.1,3.9,3.9,0,0,0-.6-2.3A2.1,2.1,0,0,0,158.6,43.8Z"/><path class="b" d="M173,50.7a6.8,6.8,0,0,1-3.4.8,4.3,4.3,0,0,1-4.8-4.6,4.9,4.9,0,0,1,1.4-3.6A5.3,5.3,0,0,1,170,42a7.5,7.5,0,0,1,2.6.4v1.9a5.7,5.7,0,0,0-2.7-.6,3.2,3.2,0,0,0-2.1.8,3.4,3.4,0,0,0-.8,2.3,3.1,3.1,0,0,0,.8,2.2,2.4,2.4,0,0,0,1.9.8,2.1,2.1,0,0,0,1.2-.3V47.7h-1.8V46.1H173Z"/></svg>