<?xml version="1.0" standalone="no"?>
<!DOCTYPE svg PUBLIC "-//W3C//DTD SVG 20010904//EN"
 "http://www.w3.org/TR/2001/REC-SVG-20010904/DTD/svg10.dtd">
<svg version="1.0" xmlns="http://www.w3.org/2000/svg"
 width="825.000000pt" height="825.000000pt" viewBox="0 0 825.000000 825.000000"
 preserveAspectRatio="xMidYMid meet">
<metadata>
Created by potrace 1.11, written by Peter Selinger 2001-2013
</metadata>
<g transform="translate(0.000000,825.000000) scale(0.100000,-0.100000)"
fill="#000000" stroke="none">
<path d="M3878 8108 c-133 -77 -328 -190 -433 -250 -104 -61 -210 -122 -235
-136 -25 -13 -72 -40 -105 -60 -85 -49 -302 -174 -355 -204 -25 -14 -112 -65
-195 -113 -178 -104 -183 -107 -305 -175 -141 -79 -139 -76 -82 -116 82 -58
94 -67 205 -157 168 -138 336 -302 482 -472 128 -149 330 -427 400 -552 6 -10
34 -60 63 -111 136 -240 299 -622 368 -867 19 -64 84 -317 88 -340 3 -16 11
-57 17 -90 16 -88 17 -94 28 -165 9 -60 13 -88 26 -195 24 -201 24 -688 1
-835 -3 -14 -7 -50 -10 -80 -11 -93 -46 -275 -81 -410 -98 -388 -293 -809
-548 -1190 -50 -74 -95 -139 -99 -145 -4 -5 -53 -68 -109 -139 -56 -71 -115
-145 -133 -164 -101 -113 -137 -153 -188 -207 -32 -33 -58 -62 -58 -65 0 -3
48 -32 107 -65 58 -33 122 -69 142 -80 20 -11 47 -28 61 -36 14 -9 212 -123
440 -254 228 -131 431 -247 450 -260 31 -19 143 -83 239 -137 20 -11 42 -25
49 -30 9 -8 78 27 260 132 136 78 335 193 442 255 107 61 283 163 390 225 199
115 211 122 328 189 37 21 312 180 612 353 300 173 574 331 610 352 36 20 72
41 80 46 25 16 356 206 371 213 8 4 122 70 254 146 l240 140 3 2064 2 2065
-112 65 c-62 36 -129 74 -148 85 -19 11 -134 77 -255 147 -121 70 -236 136
-255 147 -70 40 -176 101 -230 133 -72 43 -782 451 -840 483 -45 25 -98 56
-135 79 -38 23 -130 77 -170 99 -22 12 -213 122 -425 245 -212 122 -414 239
-450 259 -36 20 -121 69 -188 108 -68 40 -126 72 -128 72 -3 0 -17 9 -32 19
-33 23 -171 103 -194 113 -11 4 -95 -39 -260 -134z m1907 -1513 c114 -30 229
-106 280 -186 81 -126 76 -354 -13 -619 -22 -63 -69 -204 -106 -312 -103 -307
-114 -369 -115 -671 -2 -285 -6 -349 -27 -462 -34 -180 -87 -313 -179 -449
-57 -85 -83 -115 -194 -231 -85 -88 -150 -182 -212 -309 -57 -114 -118 -288
-134 -376 -7 -43 -16 -88 -20 -110 -18 -84 -29 -229 -29 -380 0 -245 12 -318
108 -640 65 -217 104 -354 107 -375 4 -29 -10 -98 -24 -115 -7 -9 -23 -23 -36
-32 -47 -33 -69 -8 -175 202 -112 221 -189 401 -252 585 -40 115 -98 325 -110
395 -3 14 -9 48 -14 75 -43 219 -37 480 16 673 71 264 170 400 449 617 148
115 217 193 263 296 51 113 66 201 66 369 -1 119 -12 173 -54 262 -70 150
-243 238 -389 198 -84 -22 -229 -186 -496 -560 -22 -30 -46 -60 -54 -66 -29
-22 -70 4 -76 48 -16 121 -46 276 -80 418 -43 175 -146 494 -201 617 -7 18
-21 48 -29 67 -8 19 -15 37 -15 40 0 14 -161 327 -209 406 -28 47 -51 95 -51
106 0 31 38 74 64 74 13 0 63 -18 111 -41 112 -51 157 -66 225 -74 30 -3 66
-8 80 -10 117 -20 510 -28 610 -13 87 14 199 47 259 77 118 58 185 122 247
236 88 164 154 234 246 266 65 23 88 23 163 4z"/>
<path d="M1255 6595 c-11 -7 -174 -102 -362 -210 l-343 -197 0 -2062 0 -2061
23 -14 c45 -29 240 -141 244 -141 2 0 16 -8 31 -19 15 -10 166 -99 337 -196
171 -98 324 -186 340 -195 17 -10 75 -43 130 -75 55 -31 105 -60 110 -64 27
-20 105 -61 103 -54 -2 4 74 85 167 178 94 94 184 186 200 205 489 566 743
1140 781 1765 11 180 6 439 -11 570 -3 17 -9 68 -15 115 -35 263 -141 657
-234 865 -100 224 -136 294 -219 435 -217 368 -468 644 -842 928 -34 26 -231
145 -290 175 -132 67 -128 66 -150 52z"/>
</g>
</svg>
